
Genre:Action | Sci-Fi | Thriller
Language:English
IMDb:http://www.imdb.com/title/tt0409847/
Source:IMAGINE Thanks!

Format : MPEG-4
Format profile : Base Media
Codec ID : isom
File size : 1.38 GiB
Duration : 1h 53mn
Overall bit rate : 1 735 Kbps

Video
ID : 1
Format : AVC
Format/Info : Advanced Video Codec
Format profile : High@L4.1
Format settings, CABAC : Yes
Format settings, ReFrames : 3 frames
Codec ID : avc1
Codec ID/Info : Advanced Video Coding
Duration : 1h 53mn
Bit rate mode : Variable
Bit rate : 1 500 Kbps
Maximum bit rate : 11.7 Mbps
Width : 720 pixels
Height : 304 pixels
Display aspect ratio : 2.35:1
Frame rate mode : Constant
Frame rate : 29.970 fps
Color space : YUV
Chroma subsampling : 4:2:0
Bit depth : 8 bits
Scan type : Progressive
Bits/(Pixel*Frame) : 0.229
Stream size : 1.20 GiB (87%)
Writing library : x264

Audio
ID : 2
Format : AAC
Format/Info : Advanced Audio Codec
Format version : Version 4
Format profile :LC
Format settings, SBR : No
Codec ID : 40
Duration : 1h 53mn
Bit rate mode : Variable
Bit rate : 224 Kbps
Maximum bit rate : 335 Kbps
Channel(s) : 2 channels
Channel positions : Front: L R
Sampling rate : 44.1 KHz
Stream size : 182 MiB (13%)


Plot:
A spaceship arrives in Arizona, 1873, to take over the Earth, starting with the Wild West region. A posse of cowboys are all that stand in their way.
 
http://www.pix2links.com/images/81528844336775680737.png
 
http://www.pix2links.com/images/41902198607928020857.png
 
http://www.pix2links.com/images/78302839060515312275.png
 
http://www.pix2links.com/images/02562749369651215880.png
 
http://www.pix2links.com/images/60339870715847809876.png
